<svg width="1227" height="380" viewBox="0 0 1227 380" fill="none" xmlns="http://www.w3.org/2000/svg">
<path d="M226.295 188.704C232.846 186.725 239.021 185.103 244.86 183.752L248.691 176.143L251.583 182.282C254.902 181.608 258.104 181.022 261.168 180.53L264.837 173.36L267.808 179.574C299.921 175.421 316.16 180.884 316.16 180.884C316.16 180.884 237.383 180.939 273.785 245.418C277.084 231.042 283.538 219.706 290.775 210.921L283.119 203.495L294.001 207.218C295.669 205.41 297.356 203.721 299.041 202.16L295.813 195.635C295.813 195.635 299.868 196.848 303.612 198.195C314.938 188.989 324.907 185.217 324.907 185.217L327.084 183.874C332.033 187.187 338.768 192.684 345.524 201.322L355.93 196.017C350.064 189.875 343.373 184.24 335.757 179.307C339.332 177.675 343.942 175.818 349.178 174.303L351.084 167.562L355.396 172.758C362.038 171.382 369.305 170.78 376.499 171.9C377.314 172.027 378.119 172.175 378.914 172.335L383.89 164.334L386.323 174.362C388.679 175.175 390.926 176.103 393.044 177.118L400.659 167.315L397.012 179.185C409.101 185.973 416.263 194.66 416.263 194.66C416.263 194.66 420.7 148.699 381.1 142.15C344.579 136.109 328.451 171.105 326.163 176.586C326.109 176.609 326.048 176.637 325.994 176.661C326.888 172.442 332.775 149.009 356.128 132.701L355.895 125.294L360.398 129.926C363.947 127.78 367.845 125.8 372.136 124.062L371.963 118.644L377.003 122.256C383.228 120.145 390.186 118.526 397.975 117.578C339.553 92.9687 320.405 111.033 321.746 175.785C318.391 104.184 285.484 93.1071 242.577 115.671C249.393 118.409 255.903 121.765 262.04 125.478L273.294 121.757L268.314 129.489C272.838 132.521 277.12 135.708 281.139 138.942L289.988 136.305L285.619 142.644C305.642 159.73 317.936 176.781 317.936 176.781C317.936 176.781 262.252 118.32 226.295 188.704Z" fill="#ffe4b5"/>
<path d="M358.575 198.879L347.184 203.505C353.118 211.559 358.941 222.094 363.441 235.738L379.13 230.298C373.888 219.218 367.169 208.502 358.575 198.879Z" fill="#ffe4b5"/>
<path d="M49.037 87.7132L52.4311 92.9231C57.6093 91.7423 62.5759 91.0461 67.3229 90.7375L68.5215 83.4231L73.1637 90.5476C109.194 90.5634 127.974 111.537 127.974 111.537C127.974 111.537 88.8289 83.6743 55.8687 115.83C22.9085 147.985 57.2493 188.317 57.2493 188.317C57.2493 188.317 58.2877 175.44 65.2065 161.12L53.9838 152.346L67.584 156.573C68.9112 154.227 70.4164 151.879 72.0996 149.569L67.8055 138.536L77.7407 142.799C78.3835 142.126 79.0441 141.46 79.7265 140.805C85.7612 135.029 92.9905 130.826 100.145 127.762L100.789 120.042L107.008 125.134C115.828 122.137 123.85 120.76 128.52 120.153C126.224 131.544 124.372 142.99 122.942 154.352L135.581 161.393C135.917 144.284 137.031 131.562 137.882 124.02C140.261 125.97 143.805 129.137 147.999 133.718C150.659 132.488 153.491 131.234 153.984 131.234C154.435 131.234 153.056 134.347 151.462 137.662C153.416 139.984 155.465 142.587 157.564 145.475H166.854L161.516 151.179C166.35 158.509 171.299 167.347 175.864 177.887C194.62 140.166 171.803 124.117 153.396 117.487C157.026 117.351 161.116 117.372 165.567 117.701C168.207 113.974 171.226 110.173 171.226 110.173L172.472 118.429C175.082 118.79 177.778 119.273 180.534 119.88L188.329 109.235L185.999 121.247C198.574 124.762 212.088 131.192 224.628 142.553C216.556 57.9909 142.397 109.647 142.397 109.647C142.397 109.647 154.091 93.8468 187.031 76.6784L185.747 68.8814L193.906 73.219C197.115 71.6703 200.509 70.1196 204.077 68.5768L202.768 60.9024L211.368 65.5486C217.748 62.9852 224.624 60.4594 232.086 58.0225C152.055 15.3982 138.032 106.962 138.032 106.962C138.032 106.962 138.408 82.8495 146.033 53.6315L137.759 50.5341L147.817 47.2072C149.474 41.5266 151.413 35.7155 153.677 29.8944L143.916 25.8891L156.949 22.0025C160.286 14.4804 164.208 7.05132 168.824 0C113.64 6.93264 94.4918 40.1658 133.789 108.527C94.9111 53.9698 62.6767 42.2921 23.8579 103.796C31.8092 99.5749 39.4203 96.5308 46.6615 94.4303L49.037 87.7132Z" fill="#ffe4b5"/>
<path d="M119.815 275.097L144.795 276.368C141.614 258.027 139.437 240.857 137.989 225.071L118.47 222.77C118.267 241.883 118.87 259.637 119.815 275.097Z" fill="#ffe4b5"/>
<path d="M245.4 297.156C310.899 304.894 354.957 262.879 367.217 249.447C369.497 259.496 371.082 270.891 371.633 283.835L394.227 280.846C391.883 266.172 387.829 249.967 380.953 234.288L364.372 238.665C365.191 241.341 365.945 244.156 366.653 247.063C352.873 252.406 305.929 268.429 259.694 258.96C200.768 246.893 146.622 189.941 135.518 177.669C135.471 173.348 135.475 169.222 135.522 165.305L122.363 159.15C119.999 179.438 118.868 199.371 118.538 218.102L137.692 221.748C136.543 208.41 135.92 196.116 135.651 184.974C142.876 212.218 169.669 288.212 245.4 297.156Z" fill="#ffe4b5"/>
<path d="M396.856 332.239C397.231 326.74 398.078 308.688 395.012 286.171L371.738 286.762C372.072 297.89 371.643 310.132 370.282 323.56C305.462 306.443 224.202 311.287 154.328 321.825C150.797 307.44 147.87 293.549 145.485 280.263L120.183 280.765C121.625 301.755 123.623 317.939 124.843 326.699C53.3902 339.52 0 356.253 0 356.253H439.122C426.784 346.371 412.523 338.469 396.856 332.239Z" fill="#ffe4b5"/>
<path d="M25.6067 283.837C25.6067 301.978 40.3126 316.684 58.4542 316.684C76.5938 316.684 91.2996 301.978 91.2996 283.837C91.2996 265.695 76.5938 250.989 58.4542 250.989C40.3126 250.989 25.6067 265.695 25.6067 283.837Z" fill="#ffe4b5"/>
<path d="M734.634 238C733.704 238 733.1 237.535 732.821 236.605L728.637 222.938C728.451 222.566 728.218 222.38 727.939 222.38H693.631C693.353 222.38 693.12 222.566 692.934 222.938L688.89 236.605C688.611 237.535 688.006 238 687.077 238H669.365C668.807 238 668.389 237.86 668.11 237.581C667.831 237.21 667.784 236.698 667.97 236.047L698.094 141.77C698.373 140.84 698.978 140.375 699.907 140.375H721.803C722.733 140.375 723.337 140.84 723.616 141.77L753.74 236.047C753.833 236.233 753.88 236.466 753.88 236.745C753.88 237.581 753.368 238 752.346 238H734.634ZM697.955 206.342C697.862 206.9 698.048 207.178 698.513 207.178H723.058C723.616 207.178 723.802 206.9 723.616 206.342L711.064 164.921C710.971 164.549 710.832 164.41 710.646 164.503C710.46 164.503 710.321 164.642 710.228 164.921L697.955 206.342ZM762.652 238C762.187 238 761.768 237.86 761.397 237.581C761.118 237.21 760.978 236.791 760.978 236.326V221.404C760.978 220.66 761.257 219.963 761.815 219.312L793.194 184.864C793.659 184.306 793.566 184.027 792.915 184.027H763.489C763.024 184.027 762.605 183.888 762.233 183.609C761.954 183.237 761.815 182.819 761.815 182.354V167.989C761.815 167.524 761.954 167.152 762.233 166.873C762.605 166.502 763.024 166.316 763.489 166.316H815.648C816.113 166.316 816.485 166.502 816.764 166.873C817.136 167.152 817.321 167.524 817.321 167.989V182.772C817.321 183.423 817.043 184.12 816.485 184.864L784.129 219.312C783.757 219.87 783.85 220.149 784.408 220.149H816.345C816.81 220.149 817.182 220.334 817.461 220.706C817.833 220.985 818.019 221.357 818.019 221.822V236.326C818.019 236.791 817.833 237.21 817.461 237.581C817.182 237.86 816.81 238 816.345 238H762.652ZM870.87 167.989C870.87 167.524 871.009 167.152 871.288 166.873C871.66 166.502 872.079 166.316 872.544 166.316H888.861C889.326 166.316 889.698 166.502 889.977 166.873C890.348 167.152 890.534 167.524 890.534 167.989V236.326C890.534 236.791 890.348 237.21 889.977 237.581C889.698 237.86 889.326 238 888.861 238H872.544C872.079 238 871.66 237.86 871.288 237.581C871.009 237.21 870.87 236.791 870.87 236.326V231.585C870.87 231.306 870.777 231.166 870.591 231.166C870.405 231.073 870.219 231.166 870.033 231.445C866.314 236.466 860.55 238.976 852.74 238.976C845.674 238.976 839.863 236.838 835.307 232.561C830.751 228.284 828.473 222.287 828.473 214.57V167.989C828.473 167.524 828.613 167.152 828.891 166.873C829.263 166.502 829.682 166.316 830.147 166.316H846.324C846.789 166.316 847.161 166.502 847.44 166.873C847.812 167.152 847.998 167.524 847.998 167.989V209.689C847.998 213.408 848.974 216.43 850.927 218.754C852.972 221.078 855.761 222.24 859.295 222.24C862.456 222.24 865.059 221.311 867.104 219.451C869.15 217.499 870.405 214.988 870.87 211.92V167.989ZM940.73 165.339C944.077 165.339 946.727 165.99 948.68 167.292C949.424 167.664 949.703 168.361 949.517 169.384L946.588 185.283C946.495 186.398 945.844 186.724 944.635 186.259C943.241 185.794 941.614 185.562 939.754 185.562C939.01 185.562 937.988 185.655 936.686 185.841C933.339 186.119 930.503 187.375 928.179 189.606C925.854 191.744 924.692 194.627 924.692 198.253V236.326C924.692 236.791 924.506 237.21 924.134 237.581C923.855 237.86 923.483 238 923.018 238H906.701C906.236 238 905.818 237.86 905.446 237.581C905.167 237.21 905.028 236.791 905.028 236.326V167.989C905.028 167.524 905.167 167.152 905.446 166.873C905.818 166.502 906.236 166.316 906.701 166.316H923.018C923.483 166.316 923.855 166.502 924.134 166.873C924.506 167.152 924.692 167.524 924.692 167.989V173.289C924.692 173.568 924.785 173.754 924.971 173.847C925.157 173.94 925.296 173.893 925.389 173.707C929.201 168.129 934.315 165.339 940.73 165.339ZM1020.1 194.766C1020.66 198.299 1020.85 202.251 1020.66 206.621C1020.57 207.736 1019.96 208.294 1018.85 208.294H975.752C975.194 208.294 975.008 208.527 975.194 208.991C975.473 210.851 975.984 212.71 976.728 214.57C979.146 219.777 984.073 222.38 991.511 222.38C997.462 222.287 1002.16 219.87 1005.6 215.128C1005.97 214.57 1006.39 214.291 1006.85 214.291C1007.13 214.291 1007.46 214.477 1007.83 214.849L1017.87 224.751C1018.33 225.216 1018.57 225.634 1018.57 226.006C1018.57 226.192 1018.38 226.564 1018.01 227.122C1014.94 230.934 1010.99 233.909 1006.16 236.047C1001.32 238.093 996.021 239.116 990.256 239.116C982.26 239.116 975.473 237.303 969.895 233.677C964.409 230.05 960.458 224.983 958.04 218.475C956.088 213.826 955.111 207.736 955.111 200.205C955.111 195.092 955.809 190.582 957.203 186.677C959.342 180.076 963.061 174.823 968.36 170.918C973.753 167.013 980.122 165.06 987.467 165.06C996.765 165.06 1004.2 167.757 1009.78 173.149C1015.45 178.542 1018.89 185.748 1020.1 194.766ZM987.606 182.075C981.749 182.075 977.89 184.818 976.031 190.303C975.659 191.512 975.334 193 975.055 194.766C975.055 195.231 975.287 195.463 975.752 195.463H999.879C1000.44 195.463 1000.62 195.231 1000.44 194.766C999.972 192.07 999.74 190.768 999.74 190.861C998.903 188.072 997.415 185.933 995.277 184.446C993.231 182.865 990.675 182.075 987.606 182.075Z" fill="white"/>
<path d="M537.329 274.97C537.329 274.579 537.446 274.266 537.681 274.031C537.994 273.718 538.346 273.562 538.737 273.562H555.394C555.785 273.562 556.098 273.718 556.332 274.031C556.645 274.266 556.801 274.579 556.801 274.97V354.267C556.801 354.658 556.645 355.01 556.332 355.323C556.098 355.557 555.785 355.675 555.394 355.675H538.737C538.346 355.675 537.994 355.557 537.681 355.323C537.446 355.01 537.329 354.658 537.329 354.267V323.064C537.329 322.673 537.134 322.478 536.743 322.478H514.807C514.416 322.478 514.22 322.673 514.22 323.064V354.267C514.22 354.658 514.064 355.01 513.751 355.323C513.516 355.557 513.204 355.675 512.813 355.675H496.156C495.765 355.675 495.413 355.557 495.1 355.323C494.865 355.01 494.748 354.658 494.748 354.267V274.97C494.748 274.579 494.865 274.266 495.1 274.031C495.413 273.718 495.765 273.562 496.156 273.562H512.813C513.204 273.562 513.516 273.718 513.751 274.031C514.064 274.266 514.22 274.579 514.22 274.97V305.234C514.22 305.625 514.416 305.821 514.807 305.821H536.743C537.134 305.821 537.329 305.625 537.329 305.234V274.97ZM591.892 294.09C597.131 294.09 601.862 294.99 606.085 296.788C610.308 298.509 613.632 300.933 616.056 304.061C618.48 307.111 619.693 310.513 619.693 314.266V354.267C619.693 354.658 619.536 355.01 619.223 355.323C618.989 355.557 618.676 355.675 618.285 355.675H601.628C601.237 355.675 600.885 355.557 600.572 355.323C600.338 355.01 600.22 354.658 600.22 354.267V350.161C600.22 349.848 600.142 349.692 599.986 349.692C599.829 349.614 599.673 349.731 599.516 350.044C596.545 354.423 591.462 356.613 584.267 356.613C578.011 356.613 573.006 355.166 569.252 352.273C565.577 349.301 563.739 344.961 563.739 339.252C563.739 333.23 565.811 328.577 569.956 325.293C574.179 322.008 580.279 320.366 588.255 320.366H599.634C600.025 320.366 600.22 320.171 600.22 319.78V317.551C600.22 315.439 599.516 313.797 598.109 312.624C596.701 311.373 594.746 310.747 592.244 310.747C590.367 310.747 588.724 311.099 587.317 311.803C585.987 312.507 585.127 313.406 584.736 314.501C584.345 315.361 583.798 315.752 583.094 315.674L566.202 313.445C565.264 313.289 564.795 312.937 564.795 312.39C565.107 308.949 566.437 305.86 568.783 303.123C571.207 300.307 574.413 298.118 578.402 296.554C582.468 294.911 586.965 294.09 591.892 294.09ZM590.015 342.654C592.987 342.654 595.411 341.911 597.288 340.425C599.243 338.861 600.22 336.828 600.22 334.325V331.51C600.22 331.119 600.025 330.924 599.634 330.924H592.596C589.624 330.924 587.317 331.432 585.675 332.448C584.111 333.465 583.329 334.99 583.329 337.023C583.329 338.744 583.915 340.112 585.088 341.129C586.261 342.146 587.903 342.654 590.015 342.654ZM644.626 355.675C643.844 355.675 643.336 355.284 643.101 354.502L624.684 296.554C624.606 296.397 624.567 296.202 624.567 295.967C624.567 295.263 624.997 294.911 625.857 294.911H644.157C645.017 294.911 645.564 295.302 645.799 296.084L653.541 328.343C653.619 328.577 653.737 328.695 653.893 328.695C654.049 328.695 654.167 328.577 654.245 328.343L662.104 296.084C662.339 295.302 662.886 294.911 663.747 294.911L681.929 295.146C682.398 295.146 682.75 295.302 682.984 295.615C683.219 295.85 683.258 296.241 683.102 296.788L664.802 354.502C664.568 355.284 664.059 355.675 663.277 355.675H644.626ZM741.993 320.014C742.384 322.36 742.502 325.449 742.345 329.281C742.267 330.22 741.759 330.689 740.82 330.689H705.043C704.886 330.689 704.73 330.767 704.574 330.924C704.417 331.002 704.378 331.119 704.456 331.275C704.613 332.136 705.004 333.27 705.629 334.677C706.568 336.319 707.975 337.649 709.852 338.666C711.729 339.682 714.036 340.19 716.773 340.19C721.7 340.19 725.571 338.587 728.386 335.381C728.699 334.99 729.051 334.795 729.442 334.795C729.833 334.795 730.146 334.951 730.38 335.264L739.413 345.586C739.726 345.821 739.882 346.134 739.882 346.525C739.882 346.838 739.726 347.151 739.413 347.463C736.676 350.435 733.274 352.703 729.207 354.267C725.219 355.831 720.84 356.613 716.069 356.613C708.953 356.613 702.892 355.088 697.887 352.038C692.961 348.91 689.402 344.57 687.213 339.017C685.57 335.107 684.749 330.22 684.749 324.355C684.749 320.288 685.375 316.378 686.626 312.624C688.659 306.837 691.983 302.301 696.597 299.017C701.289 295.654 706.841 293.973 713.254 293.973C718.415 293.973 723.029 295.107 727.096 297.375C731.162 299.564 734.447 302.653 736.949 306.642C739.53 310.552 741.211 315.009 741.993 320.014ZM713.254 310.747C709.188 310.747 706.49 312.663 705.16 316.495C704.847 317.355 704.652 318.177 704.574 318.959C704.417 319.35 704.574 319.545 705.043 319.545H721.7C722.013 319.545 722.169 319.389 722.169 319.076C722.169 318.45 722.013 317.668 721.7 316.73C721.153 314.775 720.136 313.289 718.65 312.272C717.242 311.256 715.444 310.747 713.254 310.747ZM784.434 294.09C790.534 294.09 795.539 296.045 799.449 299.955C803.359 303.787 805.314 309.027 805.314 315.674V354.267C805.314 354.658 805.158 355.01 804.845 355.323C804.611 355.557 804.298 355.675 803.907 355.675H787.25C786.859 355.675 786.507 355.557 786.194 355.323C785.959 355.01 785.842 354.658 785.842 354.267V319.897C785.842 317.238 785.099 315.048 783.613 313.328C782.127 311.608 780.211 310.747 777.865 310.747C775.441 310.747 773.486 311.608 772 313.328C770.514 314.97 769.771 317.16 769.771 319.897V354.267C769.771 354.658 769.615 355.01 769.302 355.323C769.068 355.557 768.755 355.675 768.364 355.675H751.707C751.316 355.675 750.964 355.557 750.651 355.323C750.416 355.01 750.299 354.658 750.299 354.267V296.436C750.299 296.045 750.416 295.732 750.651 295.498C750.964 295.185 751.316 295.029 751.707 295.029H768.364C768.755 295.029 769.068 295.185 769.302 295.498C769.615 295.732 769.771 296.045 769.771 296.436V300.777C769.771 301.089 769.811 301.285 769.889 301.363C770.045 301.363 770.202 301.246 770.358 301.011C773.33 296.397 778.022 294.09 784.434 294.09ZM883.087 355.675C882.305 355.675 881.757 355.323 881.444 354.619L867.603 323.416C867.446 323.103 867.212 322.947 866.899 322.947H859.157C858.766 322.947 858.57 323.142 858.57 323.533V354.267C858.57 354.658 858.414 355.01 858.101 355.323C857.866 355.557 857.554 355.675 857.163 355.675H840.505C840.114 355.675 839.763 355.557 839.45 355.323C839.215 355.01 839.098 354.658 839.098 354.267V274.97C839.098 274.579 839.215 274.266 839.45 274.031C839.763 273.718 840.114 273.562 840.505 273.562H875.345C880.506 273.562 885.042 274.618 888.952 276.729C892.862 278.841 895.873 281.852 897.984 285.762C900.174 289.594 901.269 294.012 901.269 299.017C901.269 304.257 899.978 308.792 897.398 312.624C894.817 316.456 891.22 319.232 886.606 320.953C886.215 321.109 886.097 321.383 886.254 321.774L901.738 354.032C901.894 354.345 901.973 354.58 901.973 354.736C901.973 355.362 901.542 355.675 900.682 355.675H883.087ZM859.157 290.219C858.766 290.219 858.57 290.415 858.57 290.806V307.463C858.57 307.854 858.766 308.049 859.157 308.049H872.177C875.071 308.049 877.417 307.267 879.216 305.703C881.014 304.061 881.914 301.91 881.914 299.252C881.914 296.514 881.014 294.325 879.216 292.683C877.417 291.04 875.071 290.219 872.177 290.219H859.157ZM965.489 320.014C965.88 322.36 965.997 325.449 965.841 329.281C965.762 330.22 965.254 330.689 964.316 330.689H928.538C928.382 330.689 928.225 330.767 928.069 330.924C927.913 331.002 927.873 331.119 927.952 331.275C928.108 332.136 928.499 333.27 929.125 334.677C930.063 336.319 931.471 337.649 933.348 338.666C935.224 339.682 937.531 340.19 940.268 340.19C945.195 340.19 949.066 338.587 951.882 335.381C952.194 334.99 952.546 334.795 952.937 334.795C953.328 334.795 953.641 334.951 953.876 335.264L962.908 345.586C963.221 345.821 963.377 346.134 963.377 346.525C963.377 346.838 963.221 347.151 962.908 347.463C960.171 350.435 956.769 352.703 952.703 354.267C948.714 355.831 944.335 356.613 939.565 356.613C932.448 356.613 926.388 355.088 921.383 352.038C916.456 348.91 912.898 344.57 910.708 339.017C909.066 335.107 908.245 330.22 908.245 324.355C908.245 320.288 908.87 316.378 910.121 312.624C912.155 306.837 915.478 302.301 920.092 299.017C924.784 295.654 930.337 293.973 936.749 293.973C941.911 293.973 946.525 295.107 950.591 297.375C954.658 299.564 957.942 302.653 960.445 306.642C963.025 310.552 964.707 315.009 965.489 320.014ZM936.749 310.747C932.683 310.747 929.985 312.663 928.655 316.495C928.343 317.355 928.147 318.177 928.069 318.959C927.913 319.35 928.069 319.545 928.538 319.545H945.195C945.508 319.545 945.664 319.389 945.664 319.076C945.664 318.45 945.508 317.668 945.195 316.73C944.648 314.775 943.631 313.289 942.145 312.272C940.738 311.256 938.939 310.747 936.749 310.747ZM1009.72 309.222C1009.72 309.613 1009.57 309.965 1009.26 310.278C1009.02 310.513 1008.71 310.63 1008.32 310.63H997.643C997.252 310.63 997.056 310.826 997.056 311.217V332.566C997.056 337.023 998.855 339.252 1002.45 339.252H1006.79C1007.18 339.252 1007.5 339.408 1007.73 339.721C1008.04 339.956 1008.2 340.269 1008.2 340.66V354.267C1008.2 355.127 1007.73 355.635 1006.79 355.792C1003.04 355.948 1000.3 356.026 998.581 356.026C991.778 356.026 986.733 354.971 983.449 352.859C980.165 350.67 978.483 346.564 978.405 340.542V311.217C978.405 310.826 978.209 310.63 977.818 310.63H971.132C970.741 310.63 970.389 310.513 970.076 310.278C969.842 309.965 969.724 309.613 969.724 309.222V296.436C969.724 296.045 969.842 295.732 970.076 295.498C970.389 295.185 970.741 295.029 971.132 295.029H977.818C978.209 295.029 978.405 294.833 978.405 294.442V280.248C978.405 279.857 978.522 279.545 978.757 279.31C979.07 278.997 979.422 278.841 979.813 278.841H995.649C996.04 278.841 996.352 278.997 996.587 279.31C996.9 279.545 997.056 279.857 997.056 280.248V294.442C997.056 294.833 997.252 295.029 997.643 295.029H1008.32C1008.71 295.029 1009.02 295.185 1009.26 295.498C1009.57 295.732 1009.72 296.045 1009.72 296.436V309.222ZM1049.81 294.208C1052.63 294.208 1054.82 294.716 1056.38 295.732C1057.01 296.123 1057.24 296.71 1057.09 297.492L1054.39 313.797C1054.31 314.736 1053.76 315.009 1052.75 314.618C1051.34 314.306 1050.01 314.149 1048.76 314.149C1047.43 314.149 1046.41 314.227 1045.71 314.384C1043.28 314.697 1041.21 315.635 1039.49 317.199C1037.85 318.763 1037.03 320.835 1037.03 323.416V354.267C1037.03 354.658 1036.87 355.01 1036.56 355.323C1036.32 355.557 1036.01 355.675 1035.62 355.675H1018.96C1018.57 355.675 1018.22 355.557 1017.91 355.323C1017.67 355.01 1017.55 354.658 1017.55 354.267V296.436C1017.55 296.045 1017.67 295.732 1017.91 295.498C1018.22 295.185 1018.57 295.029 1018.96 295.029H1035.62C1036.01 295.029 1036.32 295.185 1036.56 295.498C1036.87 295.732 1037.03 296.045 1037.03 296.436V300.19C1037.03 300.425 1037.1 300.581 1037.26 300.659C1037.42 300.737 1037.53 300.659 1037.61 300.425C1040.74 296.28 1044.81 294.208 1049.81 294.208ZM1117.62 320.014C1118.01 322.36 1118.13 325.449 1117.97 329.281C1117.89 330.22 1117.38 330.689 1116.44 330.689H1080.67C1080.51 330.689 1080.35 330.767 1080.2 330.924C1080.04 331.002 1080 331.119 1080.08 331.275C1080.24 332.136 1080.63 333.27 1081.25 334.677C1082.19 336.319 1083.6 337.649 1085.48 338.666C1087.35 339.682 1089.66 340.19 1092.4 340.19C1097.32 340.19 1101.19 338.587 1104.01 335.381C1104.32 334.99 1104.67 334.795 1105.07 334.795C1105.46 334.795 1105.77 334.951 1106 335.264L1115.04 345.586C1115.35 345.821 1115.51 346.134 1115.51 346.525C1115.51 346.838 1115.35 347.151 1115.04 347.463C1112.3 350.435 1108.9 352.703 1104.83 354.267C1100.84 355.831 1096.46 356.613 1091.69 356.613C1084.58 356.613 1078.52 355.088 1073.51 352.038C1068.58 348.91 1065.03 344.57 1062.84 339.017C1061.19 335.107 1060.37 330.22 1060.37 324.355C1060.37 320.288 1061 316.378 1062.25 312.624C1064.28 306.837 1067.61 302.301 1072.22 299.017C1076.91 295.654 1082.46 293.973 1088.88 293.973C1094.04 293.973 1098.65 295.107 1102.72 297.375C1106.79 299.564 1110.07 302.653 1112.57 306.642C1115.15 310.552 1116.83 315.009 1117.62 320.014ZM1088.88 310.747C1084.81 310.747 1082.11 312.663 1080.78 316.495C1080.47 317.355 1080.28 318.177 1080.2 318.959C1080.04 319.35 1080.2 319.545 1080.67 319.545H1097.32C1097.64 319.545 1097.79 319.389 1097.79 319.076C1097.79 318.45 1097.64 317.668 1097.32 316.73C1096.78 314.775 1095.76 313.289 1094.27 312.272C1092.87 311.256 1091.07 310.747 1088.88 310.747ZM1150.57 294.09C1155.81 294.09 1160.54 294.99 1164.77 296.788C1168.99 298.509 1172.31 300.933 1174.74 304.061C1177.16 307.111 1178.37 310.513 1178.37 314.266V354.267C1178.37 354.658 1178.22 355.01 1177.9 355.323C1177.67 355.557 1177.36 355.675 1176.97 355.675H1160.31C1159.92 355.675 1159.57 355.557 1159.25 355.323C1159.02 355.01 1158.9 354.658 1158.9 354.267V350.161C1158.9 349.848 1158.82 349.692 1158.67 349.692C1158.51 349.614 1158.35 349.731 1158.2 350.044C1155.23 354.423 1150.14 356.613 1142.95 356.613C1136.69 356.613 1131.69 355.166 1127.93 352.273C1124.26 349.301 1122.42 344.961 1122.42 339.252C1122.42 333.23 1124.49 328.577 1128.64 325.293C1132.86 322.008 1138.96 320.366 1146.94 320.366H1158.31C1158.71 320.366 1158.9 320.171 1158.9 319.78V317.551C1158.9 315.439 1158.2 313.797 1156.79 312.624C1155.38 311.373 1153.43 310.747 1150.92 310.747C1149.05 310.747 1147.41 311.099 1146 311.803C1144.67 312.507 1143.81 313.406 1143.42 314.501C1143.03 315.361 1142.48 315.752 1141.77 315.674L1124.88 313.445C1123.94 313.289 1123.48 312.937 1123.48 312.39C1123.79 308.949 1125.12 305.86 1127.46 303.123C1129.89 300.307 1133.09 298.118 1137.08 296.554C1141.15 294.911 1145.65 294.09 1150.57 294.09ZM1148.7 342.654C1151.67 342.654 1154.09 341.911 1155.97 340.425C1157.92 338.861 1158.9 336.828 1158.9 334.325V331.51C1158.9 331.119 1158.71 330.924 1158.31 330.924H1151.28C1148.3 330.924 1146 331.432 1144.36 332.448C1142.79 333.465 1142.01 334.99 1142.01 337.023C1142.01 338.744 1142.6 340.112 1143.77 341.129C1144.94 342.146 1146.58 342.654 1148.7 342.654ZM1223.94 309.222C1223.94 309.613 1223.78 309.965 1223.47 310.278C1223.24 310.513 1222.92 310.63 1222.53 310.63H1211.86C1211.47 310.63 1211.27 310.826 1211.27 311.217V332.566C1211.27 337.023 1213.07 339.252 1216.67 339.252H1221.01C1221.4 339.252 1221.71 339.408 1221.95 339.721C1222.26 339.956 1222.42 340.269 1222.42 340.66V354.267C1222.42 355.127 1221.95 355.635 1221.01 355.792C1217.26 355.948 1214.52 356.026 1212.8 356.026C1205.99 356.026 1200.95 354.971 1197.67 352.859C1194.38 350.67 1192.7 346.564 1192.62 340.542V311.217C1192.62 310.826 1192.43 310.63 1192.03 310.63H1185.35C1184.96 310.63 1184.61 310.513 1184.29 310.278C1184.06 309.965 1183.94 309.613 1183.94 309.222V296.436C1183.94 296.045 1184.06 295.732 1184.29 295.498C1184.61 295.185 1184.96 295.029 1185.35 295.029H1192.03C1192.43 295.029 1192.62 294.833 1192.62 294.442V280.248C1192.62 279.857 1192.74 279.545 1192.97 279.31C1193.29 278.997 1193.64 278.841 1194.03 278.841H1209.86C1210.26 278.841 1210.57 278.997 1210.8 279.31C1211.12 279.545 1211.27 279.857 1211.27 280.248V294.442C1211.27 294.833 1211.47 295.029 1211.86 295.029H1222.53C1222.92 295.029 1223.24 295.185 1223.47 295.498C1223.78 295.732 1223.94 296.045 1223.94 296.436V309.222Z" fill="#ffe4b5"/>
</svg>
